PathFileType	4	(X/Y/Z)	walk-thru1-1-TP.trc
DataRate	CameraRate	NumFrames	NumMarkers	Units	OrigDataRate	OrigDataStartFrame	OrigNumFrames
120.00	120.00	       4	60	mm	120.00	340	       452
Frame#	Time	Top.Head			Front.Head			Rear.Head			Jaw			C7			R.Clavicle			L.Clavicle			R.Shoulder			L.Shoulder			R.Scapula			L.Scapula			R.Scap.Inf			R.Biceps.Lateral			R.Elbow			R.Elbow.Medial			R.Forearm			R.Ulna			R.Radius			R.Wrist			R.Thumb.M1			R.Thumb.M2			R.Thumb.M3			R.Finger3.M1			R.Finger3.M2			R.Finger3.M3			L.Biceps.Lateral			L.Elbow			L.Elbow.Medial			L.Forearm			L.Ulna			L.Radius			L.Wrist			L.Thumb.M1			L.Thumb.M2			L.Thumb.M3			L.Finger3.M1			L.Finger3.M2			L.Finger3.M3			V.Sacral			R.ASIS			L.ASIS			R.Thigh			R.Thigh.Front			R.Knee			R.Knee.Medial			R.Shank			R.Ankle			R.Ankle.Medial			R.Heel			R.Toe			R.MedFoot			L.Thigh			L.Knee			L.Knee.Medial			L.Shank			L.Ankle			L.Ankle.Medial			L.Heel			L.Toe			L.MedFoot			V_mid_ASIS			V_R_Knee_JC			V_L_Knee_JC			V_R_Elbow_JC			V_L_Elbow_JC			V_R_Ankle_JC			V_L_Ankle_JC			V_R_Wrist_JC			V_L_Wrist_JC			V_R_ScaTrpz_1stMC_JC			V_R_1stMC_1stPP_JC			V_R_1stPP_1stDP_JC			V_R_LunCap_3rdMC_JC			V_R_3rdMC_3rdPP_JC			V_R_3rdPP_3rdMP_JC			V_R_3rdMP_3rdDP_JC			V_L_ScaTrpz_1stMC_JC			V_L_1stMC_1stPP_JC			V_L_1stPP_1stDP_JC			V_L_LunCap_3rdMC_JC			V_L_3rdMC_3rdPP_JC			V_L_3rdPP_3rdMP_JC			V_L_3rdMP_3rdPP_JC			V_ROOT_JC			V_R_Hip_JC			V_L_Hip_JC			V_R_GlenHum_JC			V_L_GlenHum_JC			V_ForeHead_Ctr			V_Vertex			V_Sagit_Lambdoid_Suture			V_R_FrontoTemp			V_L_FrontoTemporal			V_R_ParietalOccip			V_L_ParietalOcciptal			V_R_Temporal			V_L_Temporal			V_mid_FrontRearHead			V_mid_RLGlenHumCtrs			V_C7_vert			V_C1_vert			V_Mid_Hip			
		X1	Y1	Z1	X2	Y2	Z2	X3	Y3	Z3	X4	Y4	Z4	X5	Y5	Z5	X6	Y6	Z6	X7	Y7	Z7	X8	Y8	Z8	X9	Y9	Z9	X10	Y10	Z10	X11	Y11	Z11	X12	Y12	Z12	X13	Y13	Z13	X14	Y14	Z14	X15	Y15	Z15	X16	Y16	Z16	X17	Y17	Z17	X18	Y18	Z18	X19	Y19	Z19	X20	Y20	Z20	X21	Y21	Z21	X22	Y22	Z22	X23	Y23	Z23	X24	Y24	Z24	X25	Y25	Z25	X26	Y26	Z26	X27	Y27	Z27	X28	Y28	Z28	X29	Y29	Z29	X30	Y30	Z30	X31	Y31	Z31	X32	Y32	Z32	X33	Y33	Z33	X34	Y34	Z34	X35	Y35	Z35	X36	Y36	Z36	X37	Y37	Z37	X38	Y38	Z38	X39	Y39	Z39	X40	Y40	Z40	X41	Y41	Z41	X42	Y42	Z42	X43	Y43	Z43	X44	Y44	Z44	X45	Y45	Z45	X46	Y46	Z46	X47	Y47	Z47	X48	Y48	Z48	X49	Y49	Z49	X50	Y50	Z50	X51	Y51	Z51	X52	Y52	Z52	X53	Y53	Z53	X54	Y54	Z54	X55	Y55	Z55	X56	Y56	Z56	X57	Y57	Z57	X58	Y58	Z58	X59	Y59	Z59	X60	Y60	Z60	

340	2.825	-653.85828	-11.96846	1569.14111	-760.91528	-6.92183	1475.65771	-546.87622	-8.20465	1481.22461	-739.62158	5.48874	1332.15527	-537.95477	5.61327	1376.39490	-614.76147	118.55771	1286.58557	-638.99353	-96.42063	1294.66040	-561.58673	193.35667	1284.56116	-593.48914	-190.50330	1296.13843	-485.60321	87.74561	1303.83118	-491.55505	-93.68633	1303.26746	-435.82394	69.28886	1223.83044	-555.76154	248.01338	1144.16675	-494.99680	264.84421	991.56500	-472.62854	191.47693	978.74249	-554.26093	268.53406	902.69354	-504.82440	293.89441	828.40302	-557.82953	255.89270	763.72418	-546.30511	297.35156	733.57831	-570.41772	258.30899	705.66705	-567.14880	244.32758	668.41071	-558.11237	235.20581	627.10468	-542.13733	312.37781	655.11505	-523.81213	294.36404	608.23785	-500.98825	275.50439	578.97180	-591.12091	-256.47260	1152.48987	-556.04504	-277.57245	1005.62207	-529.13593	-201.45435	990.47186	-647.54266	-255.57388	953.41589	-652.10693	-293.34564	861.08868	-706.90558	-233.51349	826.88739	-720.20636	-282.62869	803.29309	-743.64801	-240.15677	796.01648	-759.39929	-218.28783	760.22906	-770.83984	-208.48743	710.75891	-761.87421	-283.46979	722.91040	-769.19434	-270.23151	684.53149	-761.07037	-236.46979	650.17871	-413.32718	15.30002	914.04846	-615.08582	154.65358	972.35968	-587.20959	-162.43559	959.13483	-691.74274	191.60019	598.05481	-779.68823	119.68633	522.55127	-736.78912	159.37999	458.71280	-748.65094	44.13442	458.52158	-690.16119	112.21495	289.83902	-552.53381	118.47019	107.63804	-587.82953	32.12540	118.68859	-499.22549	51.37032	93.37895	-680.34528	113.18820	51.84517	-647.92474	64.45656	86.32175	-560.16534	-169.13101	580.85345	-573.24774	-134.39670	444.80194	-599.97528	-17.64107	431.64655	-575.71619	-72.72500	251.46817	-497.50156	-80.86967	64.35854	-520.48407	6.93278	83.56960	-444.02914	-28.20374	42.30185	-647.28424	-61.69819	39.98160	-592.26996	-20.43734	60.23253																																																																																																																															
341	2.833	-661.33502	-10.61457	1569.07813	-767.24316	-7.14997	1475.37280	-553.75000	-10.09412	1480.70422	-745.72919	5.88721	1331.68091	-543.71240	5.52144	1376.49329	-621.27423	119.26247	1285.93872	-644.34857	-96.18420	1293.84668	-566.92871	193.00766	1284.68774	-599.81390	-190.61098	1295.04626	-491.62521	88.57255	1303.52405	-498.61197	-94.62206	1302.78064	-441.32047	69.20688	1223.83716	-560.10132	247.52153	1143.92175	-498.26230	264.39767	991.67480	-476.98245	190.76514	978.87933	-557.73706	267.72977	902.61212	-506.72580	293.29147	828.07635	-560.68097	253.93088	763.10559	-548.18964	296.12723	733.64404	-571.08203	257.57330	705.64014	-566.91003	240.70390	668.26062	-560.34253	232.72630	627.14844	-542.37347	312.08087	654.88220	-526.73102	292.87122	607.22662	-501.63907	274.00333	579.11292	-598.21069	-256.40842	1151.98438	-562.46173	-278.66171	1004.60327	-537.69519	-202.46486	990.74817	-654.44775	-256.31769	952.25372	-658.64050	-292.89560	860.42767	-713.52246	-234.24390	826.75861	-727.53595	-282.38684	802.60803	-750.77460	-239.67871	795.49298	-765.68134	-217.35855	759.39905	-777.11066	-208.45766	710.28162	-768.83514	-282.62976	722.62305	-775.64294	-268.38895	683.97040	-767.27618	-236.28088	649.91821	-419.29266	15.39324	914.14722	-620.37720	153.82048	972.10773	-592.19391	-162.90620	958.28351	-698.63281	191.10490	598.26294	-788.30762	119.97959	524.07355	-744.84436	157.69237	460.49722	-757.55615	44.32123	458.77838	-704.01459	111.42088	290.02927	-574.01160	116.70992	102.49447	-609.66083	30.63959	115.22836	-516.50385	49.56796	87.80360	-702.87128	113.64719	51.52710	-669.21375	66.16403	84.88574	-563.72290	-169.94215	580.49011	-575.88391	-134.60768	444.42700	-602.20874	-17.90149	431.02206	-577.10345	-72.61816	250.53792	-497.64322	-80.75955	64.42220	-521.34216	6.50702	83.36998	-443.90683	-28.35728	43.02059	-647.47607	-61.72548	39.69026	-593.52069	-23.39974	61.38319																																																																																																																															
342	2.842	-667.19965	-11.56648	1568.76819	-774.41864	-6.86104	1473.98596	-559.33960	-9.70374	1480.03003	-751.99420	5.96398	1331.04358	-551.79706	5.54839	1376.54199	-626.61230	118.61924	1285.27112	-651.34637	-96.38052	1293.70923	-571.59241	192.31168	1284.07886	-606.78418	-190.80186	1295.41614	-497.63657	88.77240	1303.96765	-504.22888	-94.90329	1302.15491	-446.84723	68.24350	1223.60559	-565.11426	247.62619	1143.58105	-503.28418	262.82709	991.36115	-480.07538	189.03984	978.62567	-560.58978	267.17780	902.19238	-510.74860	293.00525	828.37701	-562.19293	254.15421	762.92432	-550.51678	297.25516	732.45850	-572.21368	256.56812	704.32367	-569.66815	240.29591	666.96112	-562.54071	232.30443	627.38177	-544.63959	311.63260	654.87390	-527.63599	292.18716	607.48340	-503.54443	272.59836	579.31915	-605.41278	-257.17612	1151.14941	-570.31018	-277.77292	1004.21973	-542.01123	-203.44693	991.01788	-661.45398	-255.38499	951.16779	-666.20636	-294.19943	860.01508	-720.56708	-233.50577	825.94989	-734.87085	-282.03897	801.98981	-757.19794	-239.29143	794.87964	-772.59393	-217.13934	759.14368	-783.87207	-207.29854	709.95996	-776.02454	-281.33514	721.94470	-782.84039	-269.01535	682.92950	-774.62750	-235.34402	648.92627	-424.90878	15.88908	913.52991	-625.61255	153.53613	971.76263	-598.14960	-162.90150	958.15131	-705.66699	191.53732	599.62061	-796.65991	119.50480	525.21857	-753.86761	156.26358	461.14008	-765.05383	43.06791	459.97845	-719.13153	111.11910	289.47253	-595.53601	116.53017	98.23780	-629.28601	30.13072	111.68939	-542.66852	50.17336	80.87765	-725.69446	113.79491	51.35099	-690.82404	65.68899	83.00437	-568.04224	-169.51102	580.14685	-578.02344	-133.87674	443.83640	-604.87085	-19.01736	430.73016	-578.17041	-72.97916	250.29605	-498.07529	-80.69415	64.55527	-521.01282	6.03408	83.31841	-444.11374	-28.52325	42.90744	-647.69354	-61.67469	39.70793	-593.04498	-21.99214	60.19611																																																																																																																															
343	2.850	-673.41626	-10.45411	1567.69739	-779.95337	-7.03238	1473.25159	-566.28644	-10.39784	1480.04456	-757.58258	5.53778	1330.97913	-557.86694	5.55191	1376.98596	-632.24683	118.92793	1284.90625	-655.11292	-95.30653	1292.76904	-576.61761	192.50488	1283.13672	-612.60254	-190.25352	1294.66052	-502.47897	87.57878	1303.28198	-510.44836	-94.38368	1301.94385	-452.34689	68.79404	1222.94019	-569.76532	247.18237	1142.88635	-507.02396	263.36557	991.36407	-485.37061	188.57854	979.10034	-563.45807	267.33841	901.33398	-512.54626	292.54752	828.18652	-565.66528	253.96956	762.23773	-553.80469	295.98462	732.04993	-577.78705	256.89911	705.27655	-571.84888	239.76167	667.30890	-564.71405	232.49884	626.76813	-547.14655	310.78195	653.97192	-529.27979	291.66684	607.32349	-505.75607	271.41934	578.01654	-612.10907	-256.60489	1150.63647	-577.31586	-278.57861	1003.33289	-549.14276	-202.80432	989.72345	-667.70013	-255.54567	950.52216	-673.70880	-292.97318	859.33740	-726.27490	-233.74330	824.86786	-741.65894	-281.53140	801.64685	-763.93677	-238.28543	794.08228	-779.03290	-215.86464	758.24658	-790.20209	-206.99074	708.55621	-782.48547	-281.62646	721.47601	-789.87494	-267.60431	681.75183	-781.51105	-234.84007	648.11719	-430.07761	15.96084	913.18127	-630.99414	152.97955	971.79059	-602.87970	-163.01590	957.12256	-712.95343	191.22809	599.52203	-804.30170	119.00202	526.42273	-762.37469	156.60722	461.39755	-774.06720	43.37283	461.41830	-732.85504	111.29064	290.27100	-616.61017	117.09369	95.07997	-650.61871	30.44393	109.63227	-563.67419	48.61443	74.81682	-748.55035	113.76427	52.32119	-711.78021	64.43906	82.07443	-572.59021	-169.24837	579.80042	-580.69531	-134.30391	443.48373	-606.90710	-18.06305	430.33591	-579.29724	-73.69510	250.15610	-498.22989	-80.71846	64.61413	-521.09198	6.29698	83.29895	-443.94324	-28.23961	43.14422	-647.55719	-61.76252	39.61134	-593.01031	-21.72091	59.71968																																																																																																																															
